<?xml version="1.0" encoding="UTF-8" standalone="no"?>
<!-- Created with Inkscape (http://www.inkscape.org/) -->

<svg
   xmlns:dc="http://purl.org/dc/elements/1.1/"
   xmlns:cc="http://creativecommons.org/ns#"
   xmlns:rdf="http://www.w3.org/1999/02/22-rdf-syntax-ns#"
   xmlns:svg="http://www.w3.org/2000/svg"
   xmlns="http://www.w3.org/2000/svg"
   xmlns:sodipodi="http://sodipodi.sourceforge.net/DTD/sodipodi-0.dtd"
   xmlns:inkscape="http://www.inkscape.org/namespaces/inkscape"
   width="6751.6001"
   height="702.40002"
   viewBox="0 0 1786.3609 185.84332"
   version="1.1"
   id="svg23367"
   inkscape:version="0.92.0 r15299"
   sodipodi:docname="webroot.svg">
  <defs
     id="defs23361" />
  <sodipodi:namedview
     id="base"
     pagecolor="#ffffff"
     bordercolor="#666666"
     borderopacity="1.0"
     inkscape:pageopacity="0.0"
     inkscape:pageshadow="2"
     inkscape:zoom="0.11885708"
     inkscape:cx="5136.0646"
     inkscape:cy="58.400002"
     inkscape:document-units="mm"
     inkscape:current-layer="layer1"
     showgrid="false"
     fit-margin-top="0"
     fit-margin-left="0"
     fit-margin-right="0"
     fit-margin-bottom="0"
     units="px"
     inkscape:window-width="1280"
     inkscape:window-height="744"
     inkscape:window-x="-4"
     inkscape:window-y="-4"
     inkscape:window-maximized="1" />
  <metadata
     id="metadata23364">
    <rdf:RDF>
      <cc:Work
         rdf:about="">
        <dc:format>image/svg+xml</dc:format>
        <dc:type
           rdf:resource="http://purl.org/dc/dcmitype/StillImage" />
        <dc:title></dc:title>
      </cc:Work>
    </rdf:RDF>
  </metadata>
  <g
     inkscape:label="Layer 1"
     inkscape:groupmode="layer"
     id="layer1"
     transform="translate(1080.1275,2.6594835)">
    <g
       id="g23514"
       transform="translate(0.52916959,-0.52912445)">
      <path
         id="path23371"
         d="m 686.86585,17.739853 c -0.82021,0.3175 -2.11666,0.47625 -3.73062,0.47625 h -3.4925 V 10.17277 h 3.33375 c 2.16958,0 3.73062,0.264583 4.73604,0.846667 0.9525,0.502708 1.45521,1.613958 1.45521,3.227916 0,1.693333 -0.71438,2.883958 -2.30188,3.4925 m 5.82084,10.503958 c -0.0794,-0.582083 -0.0794,-1.11125 -0.0794,-1.640416 v -1.613959 c 0,-1.11125 -0.39687,-2.248958 -1.21708,-3.439583 -0.76729,-1.164167 -2.06375,-1.878542 -3.83646,-2.169583 1.40229,-0.238125 2.46062,-0.555625 3.25437,-1.084792 1.4023,-0.926042 2.14313,-2.38125 2.14313,-4.365625 0,-2.804583 -1.11125,-4.6831248 -3.38667,-5.6356248 -1.29646,-0.5027083 -3.33375,-0.7937499 -6.05896,-0.7937499 h -7.75229 V 29.672561 h 3.88938 v -8.678333 h 3.06916 c 2.06375,0 3.4925,0.238125 4.36563,0.687917 1.40229,0.846666 2.06375,2.513541 2.06375,5.08 v 1.772708 l 0.0794,0.687917 c 0.0794,0.105833 0.0794,0.185208 0.0794,0.238125 0.0794,0.105833 0.0794,0.15875 0.0794,0.238125 h 3.67771 l -0.15875,-0.291042 c -0.13229,-0.185208 -0.18521,-0.582083 -0.21166,-1.164167"
         class="st0"
         inkscape:connector-curvature="0"
         style="fill:#408740;stroke-width:0.26458332" />
      <path
         id="path23373"
         d="m 697.21106,30.916103 c -3.41312,3.413125 -7.46125,5.132917 -12.30312,5.132917 -4.84188,0 -8.91646,-1.719792 -12.27667,-5.132917 -3.33375,-3.413125 -5.05354,-7.514167 -5.05354,-12.3825 0,-4.788958 1.69333,-8.8899998 5.08,-12.2766664 3.36021,-3.413125 7.48771,-5.1329166 12.25021,-5.1329166 4.84187,0 8.89,1.6933333 12.30312,5.1329166 3.36021,3.3866666 5.05354,7.4877084 5.05354,12.2766664 0.0265,4.894792 -1.69333,8.995833 -5.05354,12.3825 M 684.90794,-1.6011883 c -5.5298,0 -10.2923,1.98437498 -14.20813,5.8737499 -3.94229,3.96875 -5.95312,8.6783334 -5.95312,14.2610414 0,5.609167 1.95791,10.371667 5.87375,14.313958 3.91583,3.96875 8.70479,5.953125 14.2875,5.953125 5.60916,0 10.3452,-1.984375 14.31395,-5.953125 3.9423,-3.942291 5.95313,-8.73125 5.95313,-14.313958 0,-5.582708 -1.98438,-10.3452081 -5.95313,-14.2610414 -3.96875,-3.88937492 -8.70479,-5.8737499 -14.31395,-5.8737499"
         class="st0"
         inkscape:connector-curvature="0"
         style="fill:#408740;stroke-width:0.26458332" />
      <path
         id="path23375"
         d="m 354.04648,129.84381 c -0.52916,6.64104 -3.70416,10.76854 -10.08062,11.53583 -10.10709,1.24354 -32.19979,2.19604 -47.38688,2.19604 -15.21354,0 -37.57083,-0.9525 -47.67791,-2.19604 -6.35,-0.71437 -9.60438,-4.89479 -10.05417,-11.53583 -0.23812,-4.41854 -0.74083,-26.48479 -0.74083,-39.052499 0,-12.514792 0.50271,-34.633958 0.74083,-39.078958 0.47625,-6.588125 3.70417,-10.768542 10.05417,-11.509375 10.10708,-1.217083 32.46437,-2.196042 47.67791,-2.196042 15.18709,0 37.27979,0.978959 47.38688,2.196042 6.37646,0.740833 9.55146,4.92125 10.08062,11.509375 0.21167,4.445 0.71438,26.564166 0.71438,39.078958 0,12.567709 -0.50271,34.633959 -0.71438,39.052499 M 370.42419,2.155895 c -22.56896,-2.43416665 -51.03812,-3.6777083 -73.87167,-3.6777083 -22.86,0 -51.6202,1.24354165 -74.18916,3.6777083 -16.21896,1.74625 -27.27854,16.1925 -28.49563,31.220833 -0.71437,9.577916 -1.27,47.889583 -1.27,57.441041 0,9.577921 0.55563,47.916041 1.27,57.493961 1.21709,15.00187 12.27667,29.7127 28.49563,31.45895 22.56896,2.46063 51.35562,3.41313 74.18916,3.41313 22.80709,0 51.30271,-0.9525 73.87167,-3.41313 16.24542,-1.74625 27.305,-16.43062 28.49562,-31.45895 0.79375,-9.55146 1.21709,-47.91604 1.21709,-57.493961 0,-9.551458 -0.44979,-47.836666 -1.21709,-57.441041 C 397.72919,18.374853 386.66961,3.902145 370.42419,2.155895"
         class="st0"
         inkscape:connector-curvature="0"
         style="fill:#408740;stroke-width:0.26458332" />
      <path
         id="path23377"
         d="m 112.98461,129.84381 c -0.44979,6.64104 -3.65125,10.82146 -10.10708,11.53583 -10.001253,1.24354 -32.120419,2.19604 -47.333961,2.19604 -15.24,0 -37.597291,-0.9525 -47.677916,-2.19604 -6.35,-0.71437 -9.5779166,-4.89479 -10.0806249,-11.53583 -0.2645833,-4.41854 -0.714375,-26.48479 -0.714375,-39.026041 0,-12.514792 0.4497917,-34.633958 0.714375,-39.078958 0.5027083,-6.588125 3.7041666,-10.768542 10.0806249,-11.509375 10.054167,-1.217083 32.437916,-2.196041 47.677916,-2.196041 15.213542,0 37.30625,0.978958 47.333961,2.196041 6.45583,0.740833 9.65729,4.92125 10.10708,11.509375 0.29104,4.445 0.76729,26.564166 0.76729,39.078958 0,12.541251 -0.47625,34.607501 -0.76729,39.026041 M 129.46815,2.155895 c -22.59541,-2.43416665 -51.117498,-3.6777083 -73.924581,-3.6777083 -22.912916,0 -51.6202077,1.24354165 -74.189166,3.6777083 -16.218958,1.74625 -27.252083,16.218958 -28.469166,31.220833 -0.714375,9.577916 -1.243542,47.889583 -1.243542,57.441041 0,9.577921 0.529167,47.916041 1.243542,57.467501 1.217083,15.00187 12.250208,29.71271 28.469166,31.45896 22.5954167,2.46062 51.302708,3.41312 74.189166,3.41312 22.807083,0 51.302711,-0.9525 73.924581,-3.41312 16.24542,-1.74625 27.27854,-16.43063 28.49563,-31.45896 0.71437,-9.55146 1.21708,-47.91604 1.21708,-57.493959 0,-9.551459 -0.50271,-47.836667 -1.21708,-57.441041 C 156.74669,18.374853 145.71357,3.902145 129.46815,2.155895"
         class="st0"
         inkscape:connector-curvature="0"
         style="fill:#408740;stroke-width:0.26458332" />
      <path
         id="path23379"
         d="m -132.60164,66.608394 c -0.44979,6.614583 -3.65125,10.821458 -10.02771,11.562292 -10.08062,1.217083 -32.17333,2.196041 -47.41333,2.196041 -15.18708,0 -39.50229,-1.243541 -48.39229,-1.931458 -1.21708,-0.238125 -7.59354,-1.005417 -10.05417,-1.243542 V 41.208394 c 2.14313,-0.238125 9.3398,-0.978958 14.02292,-1.455208 9.49854,-1.031875 28.8925,-1.719791 44.39708,-1.719791 15.24,0 37.33271,0.978958 47.41334,2.196041 6.37645,0.740833 9.55145,4.92125 10.0277,11.509375 0.26459,3.466042 0.21167,3.01625 0.21167,6.535208 0.0529,6.402917 0.10583,4.894792 -0.18521,8.334375 m 3.06917,50.297296 v -0.0265 c 4.68312,-0.39688 9.28687,-0.79375 13.59958,-1.24354 10.55688,-1.13771 18.811878,-7.72584 23.653753,-16.27188 2.645833,-5.371041 4.206875,-11.350624 4.630208,-17.012708 0.502708,-6.641041 1.005416,-5.767916 1.005416,-15.345833 0,-12.805833 -0.502708,-27.040416 -1.005416,-33.628541 -1.243542,-15.001875 -12.250208,-29.474583 -28.495621,-31.220833 -22.51605,-2.43416665 -51.06459,-3.6777083 -73.89813,-3.6777083 -22.86,0 -50.37666,0.95249999 -71.49041,2.9633333 -14.7373,1.4816666 -32.41146,3.413125 -32.41146,3.413125 V 181.70214 h 45.45541 v -64.24083 h 0.23813 v -0.0265 c 17.48896,1.05834 41.46021,1.87854 58.28771,1.87854 3.96875,0 8.09625,-0.0264 12.35604,-0.15875 l 40.74583,62.70625 h 51.487917 l -35.507087,-52.07 c 0.0529,-0.0264 -8.70479,-12.85875 -8.65187,-12.8852"
         class="st0"
         inkscape:connector-curvature="0"
         style="fill:#408740;stroke-width:0.26458332" />
      <path
         id="path23381"
         d="m -388.61247,71.423811 c -9.36625,0.978958 -28.01937,1.984375 -43.23291,1.984375 h -63.65875 v -32.7025 c 2.24896,-0.238125 9.39271,-0.740833 14.04937,-1.243541 9.525,-0.9525 31.64417,-1.931459 47.12229,-1.931459 15.21355,0 36.88292,1.190625 46.19625,2.2225 7.85813,0.9525 9.78959,7.328958 9.78959,15.927917 0.0265,8.625416 -2.38125,14.790208 -10.26584,15.742708 m 0.50271,70.749579 c -9.31333,0.97896 -30.98271,1.98438 -46.19625,1.98438 -15.47812,0 -37.57083,-0.76729 -47.12229,-1.71979 -4.68312,-0.52917 -11.80042,-1.24355 -14.04937,-1.50813 v -32.67604 h 63.65875 c 15.21354,0 33.86666,0.74083 43.23291,1.74625 7.88458,0.9525 10.26583,7.64646 10.26583,16.21896 0,8.5725 -1.93145,14.94896 -9.78958,15.95437 m 54.98042,-95.276454 c 0,-19.182291 -5.34459,-42.280416 -28.99834,-44.7145827 -22.27791,-2.46062495 -49.82104,-3.7041666 -72.17833,-3.7041666 -22.83354,0 -53.0225,0.95249999 -74.18916,2.9633333 -14.65792,1.4816666 -32.385,3.413125 -32.385,3.413125 V 176.75443 c 2.48708,0.26459 18.89125,2.2225 32.41145,3.43959 21.16667,2.01083 51.35563,2.93687 74.18917,2.93687 22.35729,0 49.90042,-0.9525 72.20479,-3.41312 23.65375,-2.48709 28.99833,-25.77042 28.99833,-44.95271 0,-14.76375 -2.96333,-33.62854 -15.45166,-41.513124 -1.21709,-0.714375 -3.94229,-1.693334 -4.92125,-2.460625 0.97896,-0.740834 3.70416,-2.2225 4.92125,-2.936875 12.46187,-7.858125 15.39875,-26.273125 15.39875,-40.9575"
         class="st0"
         inkscape:connector-curvature="0"
         style="fill:#408740;stroke-width:0.26458332" />
      <path
         id="path23383"
         d="m -725.18892,39.753186 c 10.02771,-1.243541 32.385,-2.2225 47.625,-2.2225 22.09271,0 55.50958,0.264584 77.86687,1.455209 3.14854,0.185208 14.23459,1.508125 18.62667,2.196041 l 2.96333,-38.787916 c -4.68312,-0.714375 -17.43604,-2.22249999 -20.90208,-2.40770832 -22.06625,-1.42874998 -56.22396,-1.50812498 -78.55479,-1.50812498 -22.83354,0 -51.59375,1.24354165 -74.16271,3.6777083 -16.21896,1.74625 -27.27854,16.218958 -28.49562,31.194375 -0.74084,9.551458 -1.21709,47.889582 -1.21709,57.441041 0,9.577919 0.50271,47.916039 1.21709,57.467499 1.21708,15.00187 12.27666,29.71271 28.49562,31.45896 22.56896,2.48708 51.32917,3.41312 74.16271,3.41312 22.33083,0 56.67375,-0.0265 78.55479,-1.32291 3.46604,-0.18521 16.21896,-1.93146 20.90208,-2.69875 l -2.96333,-38.81438 c -4.39208,0.74083 -15.50458,2.2225 -18.62667,2.43417 -22.25146,1.87854 -55.77416,1.34937 -77.86687,1.34937 -15.24,0 -37.57083,-0.97896 -47.625,-2.24896 -6.42938,-0.71437 -9.63083,-4.92125 -10.10708,-11.53583 -0.23813,-2.93687 -0.47625,-13.0175 -0.47625,-21.37833 h 104.45749 V 72.402769 h -104.45749 c 0,-8.360833 0.23812,-18.203333 0.47625,-21.140208 0.47625,-6.641042 3.6777,-10.795 10.10708,-11.509375"
         class="st0"
         inkscape:connector-curvature="0"
         style="fill:#408740;stroke-width:0.26458332" />
      <polygon
         transform="matrix(0.26458333,0,0,0.26458333,-1080.101,-1.6011883)"
         id="polygon23385"
         points="6540.8,155.2 6540.8,5.8 5682.9,5.8 5682.9,155.2 6026.3,155.2 6026.3,692.8 6198.1,692.8 6198.1,155.2 "
         class="st0"
         style="fill:#408740" />
      <path
         id="path23387"
         d="m -808.0035,-0.25181332 v 0.079375 h -45.4025 c -1.21709,5.87374992 -15.68979,56.75312432 -17.30375,62.30937432 -1.56104,5.609166 -10.53042,33.284583 -12.54125,38.761454 -0.26459,0.60855 -3.25438,8.30792 -3.57188,8.89 l -40.3225,-88.926454 h -33.46979 l -40.32253,88.873544 c -0.291,-0.58209 -3.3337,-8.28146 -3.5718,-8.89 -2.0109,-5.476878 -11.0332,-33.152294 -12.5942,-38.761461 -1.5611,-5.55625 -16.0867,-56.4091657 -17.2773,-62.30937398 h -45.4554 v -0.0264583 h -0.2911 l 0.026,0.0529167 h -0.026 l 0.6615,2.14312498 v 0.026458 c 1.8785,9.4456256 27.1462,93.5302076 29.7127,102.7641636 2.6458,9.2075 18.2827,55.88 21.59,64.84938 0.344,0.92604 0.7408,1.79916 1.1642,2.67229 l 0.026,0.0794 c 2.8575,8.70479 9.525,10.00125 18.2034,10.50396 l 1.0848,0.0265 c 8.78412,0 14.47267,-1.77271 17.83287,-7.64646 l 45.98459,-101.520623 45.98458,101.520623 c 3.33375,5.87375 9.07521,7.64646 17.80646,7.64646 l 1.11125,-0.0265 c 8.70479,-0.50271 15.34583,-1.79917 18.17687,-10.50396 l 0.0529,-0.0794 c 0.39687,-0.87313 0.82021,-1.74625 1.11125,-2.67229 3.30729,-8.96938 18.99708,-55.61542 21.61646,-64.84938 2.61937,-9.233956 27.83416,-93.344997 29.76562,-102.7377053 v -0.026458 l 0.66146,-2.14312505 h -0.0794 l 0.0794,-0.079375 z"
         class="st0"
         inkscape:connector-curvature="0"
         style="fill:#408740;stroke-width:0.26458332" />
    </g>
  </g>
  <style
     id="style23369"
     type="text/css">
	.st0{fill:#408740;}
</style>
</svg>
